<?xml version="1.0" encoding="UTF-8"?>
<!DOCTYPE svg PUBLIC "-//W3C//DTD SVG 1.1//EN" "http://www.w3.org/Graphics/SVG/1.1/DTD/svg11.dtd">
<svg xmlns="http://www.w3.org/2000/svg" version="1.1" width="512px" height="512px" style="shape-rendering:geometricPrecision; text-rendering:geometricPrecision; image-rendering:optimizeQuality; fill-rule:evenodd; clip-rule:evenodd" xmlns:xlink="http://www.w3.org/1999/xlink">
<g><path style="opacity:0.977" fill="#178feb" d="M 105.5,128.5 C 127.978,127.478 138.478,138.144 137,160.5C 130.343,178.402 117.843,184.235 99.5,178C 86.2863,169.357 82.453,157.523 88,142.5C 92.2373,135.755 98.0706,131.088 105.5,128.5 Z"/></g>
<g><path style="opacity:0.979" fill="#178fea" d="M 165.5,128.5 C 249.167,128.333 332.834,128.5 416.5,129C 421.062,130.627 423.895,133.794 425,138.5C 425.667,149.167 425.667,159.833 425,170.5C 423.261,176.907 419.094,180.407 412.5,181C 331.5,181.667 250.5,181.667 169.5,181C 162.906,180.407 158.739,176.907 157,170.5C 156.333,159.833 156.333,149.167 157,138.5C 158.261,133.745 161.095,130.412 165.5,128.5 Z"/></g>
<g><path style="opacity:0.977" fill="#178feb" d="M 105.5,229.5 C 124.794,227.789 135.461,236.455 137.5,255.5C 137.154,267.348 131.487,275.515 120.5,280C 103.555,283.945 92.0554,277.778 86,261.5C 83.7718,245.278 90.2718,234.611 105.5,229.5 Z"/></g>
<g><path style="opacity:0.997" fill="#178feb" d="M 165.5,229.5 C 249.167,229.333 332.834,229.5 416.5,230C 421.099,231.598 423.932,234.765 425,239.5C 425.667,250.167 425.667,260.833 425,271.5C 423.932,276.235 421.099,279.402 416.5,281C 332.833,281.667 249.167,281.667 165.5,281C 162.063,279.895 159.563,277.728 158,274.5C 156.897,268.244 156.397,261.911 156.5,255.5C 156.397,249.089 156.897,242.756 158,236.5C 159.742,233.254 162.242,230.921 165.5,229.5 Z"/></g>
<g><path style="opacity:0.98" fill="#178fea" d="M 169.5,329.5 C 250.501,329.333 331.501,329.5 412.5,330C 419.094,330.593 423.261,334.093 425,340.5C 425.667,351.167 425.667,361.833 425,372.5C 423.895,377.206 421.062,380.373 416.5,382C 332.833,382.667 249.167,382.667 165.5,382C 160.938,380.373 158.105,377.206 157,372.5C 156.333,361.833 156.333,351.167 157,340.5C 158.948,334.137 163.115,330.47 169.5,329.5 Z"/></g>
<g><path style="opacity:0.976" fill="#178feb" d="M 104.5,330.5 C 129.299,329.46 139.799,341.127 136,365.5C 126.912,382.323 113.745,386.49 96.5,378C 85.7577,368.865 82.9244,357.698 88,344.5C 91.685,337.591 97.185,332.924 104.5,330.5 Z"/></g>
</svg>
