<?xml version="1.0" encoding="UTF-8"?>
<!DOCTYPE svg PUBLIC "-//W3C//DTD SVG 1.1//EN" "http://www.w3.org/Graphics/SVG/1.1/DTD/svg11.dtd">
<svg xmlns="http://www.w3.org/2000/svg" version="1.1" width="384px" height="120px" style="shape-rendering:geometricPrecision; text-rendering:geometricPrecision; image-rendering:optimizeQuality; fill-rule:evenodd; clip-rule:evenodd" xmlns:xlink="http://www.w3.org/1999/xlink">
<g><path style="opacity:0.913" fill="#040cbe" d="M 12.5,10.5 C 15.5,10.5 18.5,10.5 21.5,10.5C 25.0009,22.1692 29.0009,33.6692 33.5,45C 30.8333,45.6667 28.1667,45.6667 25.5,45C 24.5,42.6667 23.5,40.3333 22.5,38C 18.4589,37.1735 14.4589,37.3401 10.5,38.5C 9.42294,40.7294 8.75628,43.0628 8.5,45.5C 5.75312,45.8134 3.08645,45.48 0.5,44.5C 4.51675,33.1413 8.51675,21.808 12.5,10.5 Z M 16.5,20.5 C 18.0022,23.6538 19.3355,26.9872 20.5,30.5C 17.8938,31.6517 15.2272,31.8184 12.5,31C 13.9349,27.5272 15.2682,24.0272 16.5,20.5 Z"/></g>
<g><path style="opacity:1" fill="#040cbe" d="M 35.5,10.5 C 37.8333,10.5 40.1667,10.5 42.5,10.5C 42.5,22.1667 42.5,33.8333 42.5,45.5C 40.1667,45.5 37.8333,45.5 35.5,45.5C 35.5,33.8333 35.5,22.1667 35.5,10.5 Z"/></g>
<g><path style="opacity:0.927" fill="#040cbe" d="M 0.5,62.5 C 2.92397,62.1924 5.25731,62.5258 7.5,63.5C 9.36666,70.9756 11.5333,78.3089 14,85.5C 15.9962,77.8495 17.8295,70.1828 19.5,62.5C 22.1194,62.2317 24.6194,62.565 27,63.5C 29,70.8333 31,78.1667 33,85.5C 35.3089,78.2657 37.3089,70.9324 39,63.5C 41.3806,62.565 43.8806,62.2317 46.5,62.5C 43.656,74.2094 40.656,85.8761 37.5,97.5C 34.8333,97.5 32.1667,97.5 29.5,97.5C 27.9467,89.9468 25.78,82.6135 23,75.5C 21.1555,82.5448 19.1555,89.5448 17,96.5C 14.5341,97.7766 12.0341,97.7766 9.5,96.5C 5.87187,85.3201 2.87187,73.9868 0.5,62.5 Z"/></g>
<g><path style="opacity:0.933" fill="#040dbe" d="M 56.5,62.5 C 76.1824,62.1557 83.0157,71.489 77,90.5C 71.4903,97.8905 64.3236,100.057 55.5,97C 46.7727,90.4734 44.2727,81.9734 48,71.5C 50.0248,67.6443 52.8582,64.6443 56.5,62.5 Z M 60.5,68.5 C 65.4206,68.0429 68.9206,70.0429 71,74.5C 71.6667,78.5 71.6667,82.5 71,86.5C 68.1034,91.1549 63.9367,92.6549 58.5,91C 51.3467,82.6157 52.0133,75.1157 60.5,68.5 Z"/></g>
<g><path style="opacity:0.952" fill="#040cbe" d="M 83.5,62.5 C 90.2569,62.1226 96.9236,62.6226 103.5,64C 109.031,67.9329 110.531,73.0995 108,79.5C 107.027,81.64 105.527,83.3067 103.5,84.5C 105.96,88.5859 108.293,92.7525 110.5,97C 107.833,97.6667 105.167,97.6667 102.5,97C 100.3,93.6287 98.3001,90.1287 96.5,86.5C 94.604,85.5344 92.604,85.2011 90.5,85.5C 90.5,89.5 90.5,93.5 90.5,97.5C 88.1667,97.5 85.8333,97.5 83.5,97.5C 83.5,85.8333 83.5,74.1667 83.5,62.5 Z M 90.5,68.5 C 94.2568,68.0708 97.7568,68.7375 101,70.5C 101.769,73.0991 101.602,75.5991 100.5,78C 97.2744,79.1989 93.941,79.6989 90.5,79.5C 90.5,75.8333 90.5,72.1667 90.5,68.5 Z"/></g>
<g><path style="opacity:0.923" fill="#040cbe" d="M 150.5,62.5 C 156.105,61.9081 161.439,62.7415 166.5,65C 168.747,66.995 169.747,69.495 169.5,72.5C 165.733,73.0738 162.733,71.9071 160.5,69C 157.331,68.0218 154.497,68.5218 152,70.5C 151.28,72.1124 151.446,73.6124 152.5,75C 157.232,76.4662 161.898,78.1329 166.5,80C 172.22,86.4028 171.554,92.0694 164.5,97C 156.621,99.9817 149.787,98.4817 144,92.5C 141.514,86.9806 143.348,85.1472 149.5,87C 153.8,93.9176 158.466,94.2509 163.5,88C 162.833,87 162.167,86 161.5,85C 158.27,83.692 154.936,82.692 151.5,82C 141.218,76.0316 140.885,69.5316 150.5,62.5 Z"/></g>
<g><path style="opacity:0.961" fill="#040cbe" d="M 174.5,62.5 C 176.833,62.5 179.167,62.5 181.5,62.5C 181.5,67.5 181.5,72.5 181.5,77.5C 186.5,77.5 191.5,77.5 196.5,77.5C 196.5,72.5 196.5,67.5 196.5,62.5C 198.833,62.5 201.167,62.5 203.5,62.5C 203.5,74.1667 203.5,85.8333 203.5,97.5C 201.167,97.5 198.833,97.5 196.5,97.5C 196.5,92.8333 196.5,88.1667 196.5,83.5C 191.5,83.5 186.5,83.5 181.5,83.5C 181.5,88.1667 181.5,92.8333 181.5,97.5C 179.167,97.5 176.833,97.5 174.5,97.5C 174.5,85.8333 174.5,74.1667 174.5,62.5 Z"/></g>
<g><path style="opacity:0.931" fill="#040dbe" d="M 217.5,62.5 C 235.562,61.398 242.729,69.7313 239,87.5C 235.342,96.0814 228.842,99.5814 219.5,98C 213.26,96.0919 209.427,91.9253 208,85.5C 205.847,75.4225 209.014,67.7559 217.5,62.5 Z M 221.5,68.5 C 226.421,68.0429 229.921,70.0429 232,74.5C 232.667,78.1667 232.667,81.8333 232,85.5C 229.646,91.0949 225.479,92.9282 219.5,91C 214.54,85.9535 213.373,80.1201 216,73.5C 217.352,71.251 219.185,69.5844 221.5,68.5 Z"/></g>
<g><path style="opacity:0.946" fill="#040cbe" d="M 244.5,62.5 C 251.257,62.1226 257.924,62.6226 264.5,64C 272.389,70.9295 272.389,77.9295 264.5,85C 260.27,86.2899 255.936,86.7899 251.5,86.5C 251.5,90.1667 251.5,93.8333 251.5,97.5C 249.167,97.5 246.833,97.5 244.5,97.5C 244.5,85.8333 244.5,74.1667 244.5,62.5 Z M 251.5,68.5 C 254.579,68.2601 257.579,68.5934 260.5,69.5C 264.076,77.9548 261.076,81.6215 251.5,80.5C 251.5,76.5 251.5,72.5 251.5,68.5 Z"/></g>
<g><path style="opacity:0.943" fill="#040cbe" d="M 113.5,62.5 C 115.833,62.5 118.167,62.5 120.5,62.5C 120.334,67.5111 120.501,72.5111 121,77.5C 125.048,72.5734 129.215,67.7401 133.5,63C 136.227,62.1816 138.894,62.3483 141.5,63.5C 137.468,68.5259 133.468,73.5259 129.5,78.5C 133.072,84.7477 137.072,90.7477 141.5,96.5C 138.5,97.8333 135.5,97.8333 132.5,96.5C 129.975,92.1038 126.975,88.1038 123.5,84.5C 122.522,84.9767 121.689,85.6433 121,86.5C 120.501,90.1516 120.335,93.8183 120.5,97.5C 118.167,97.5 115.833,97.5 113.5,97.5C 113.5,85.8333 113.5,74.1667 113.5,62.5 Z"/></g>
<g><path style="opacity:0.911" fill="#040dbe" d="M -0.5,112.5 C 15.5,112.5 31.5,112.5 47.5,112.5C 47.5,114.833 47.5,117.167 47.5,119.5C 31.5,119.5 15.5,119.5 -0.5,119.5C -0.5,117.167 -0.5,114.833 -0.5,112.5 Z"/></g>
</svg>
